<svg width="1200" height="750" viewBox="0 0 1200 750" fill="none" xmlns="http://www.w3.org/2000/svg" role="img" aria-labelledby="title desc">
  <title id="title">Dashboard preview</title>
  <desc id="desc">A dashboard interface with charts, stat cards, and sidebar navigation.</desc>
  <defs>
    <linearGradient id="bg" x1="80" y1="80" x2="1120" y2="670" gradientUnits="userSpaceOnUse">
      <stop stop-color="#121018"/>
      <stop offset="1" stop-color="#2C2B52"/>
    </linearGradient>
    <linearGradient id="panel" x1="250" y1="170" x2="1030" y2="620" gradientUnits="userSpaceOnUse">
      <stop stop-color="#FFFFFF"/>
      <stop offset="1" stop-color="#D7E0FF"/>
    </linearGradient>
  </defs>

  <rect width="1200" height="750" rx="40" fill="url(#bg)"/>
  <circle cx="1020" cy="120" r="120" fill="#8EF0D8" fill-opacity="0.08"/>
  <circle cx="210" cy="610" r="170" fill="#FFBF77" fill-opacity="0.08"/>

  <rect x="95" y="80" width="1010" height="590" rx="32" fill="#FFFFFF" fill-opacity="0.06" stroke="#FFFFFF" stroke-opacity="0.12"/>
  <rect x="130" y="115" width="190" height="520" rx="26" fill="#0E1322" stroke="#FFFFFF" stroke-opacity="0.12"/>
  <rect x="170" y="160" width="110" height="18" rx="9" fill="#FFFFFF" fill-opacity="0.18"/>
  <rect x="155" y="210" width="140" height="52" rx="18" fill="#FFFFFF" fill-opacity="0.08"/>
  <rect x="155" y="280" width="140" height="52" rx="18" fill="#FFFFFF" fill-opacity="0.08"/>
  <rect x="155" y="350" width="140" height="52" rx="18" fill="#FFFFFF" fill-opacity="0.08"/>
  <rect x="155" y="420" width="140" height="52" rx="18" fill="#FFFFFF" fill-opacity="0.08"/>
  <rect x="155" y="490" width="140" height="52" rx="18" fill="#FFFFFF" fill-opacity="0.08"/>

  <rect x="355" y="120" width="715" height="126" rx="26" fill="url(#panel)"/>
  <rect x="390" y="156" width="166" height="20" rx="10" fill="#111827" fill-opacity="0.2"/>
  <rect x="390" y="188" width="226" height="24" rx="12" fill="#111827" fill-opacity="0.34"/>
  <circle cx="940" cy="183" r="30" fill="#8EF0D8" fill-opacity="0.55"/>

  <rect x="355" y="275" width="225" height="155" rx="26" fill="#101827" stroke="#FFFFFF" stroke-opacity="0.08"/>
  <rect x="390" y="312" width="110" height="16" rx="8" fill="#FFFFFF" fill-opacity="0.22"/>
  <rect x="390" y="344" width="150" height="42" rx="18" fill="#8EF0D8" fill-opacity="0.18"/>
  <rect x="390" y="396" width="85" height="16" rx="8" fill="#FFFFFF" fill-opacity="0.16"/>

  <rect x="600" y="275" width="225" height="155" rx="26" fill="#101827" stroke="#FFFFFF" stroke-opacity="0.08"/>
  <path d="M640 375C657 346 678 329 704 329C730 329 755 346 773 375" stroke="#FFBF77" stroke-width="12" stroke-linecap="round"/>
  <circle cx="715" cy="342" r="22" fill="#FFBF77" fill-opacity="0.75"/>
  <rect x="638" y="396" width="150" height="18" rx="9" fill="#FFFFFF" fill-opacity="0.18"/>

  <rect x="845" y="275" width="225" height="155" rx="26" fill="#101827" stroke="#FFFFFF" stroke-opacity="0.08"/>
  <rect x="885" y="314" width="145" height="18" rx="9" fill="#FFFFFF" fill-opacity="0.18"/>
  <rect x="885" y="348" width="95" height="18" rx="9" fill="#FFFFFF" fill-opacity="0.18"/>
  <rect x="885" y="382" width="120" height="18" rx="9" fill="#8EF0D8" fill-opacity="0.38"/>

  <rect x="355" y="450" width="715" height="160" rx="26" fill="#0E1322" stroke="#FFFFFF" stroke-opacity="0.08"/>
  <path d="M392 562C430 541 475 520 520 520C566 520 604 538 640 562C677 587 717 602 760 602C808 602 858 579 910 537C952 503 991 487 1040 487" stroke="#8EF0D8" stroke-width="10" stroke-linecap="round"/>
  <path d="M392 602H1040" stroke="#FFFFFF" stroke-opacity="0.1" stroke-width="2"/>
</svg>
