<svg width="1200" height="750" viewBox="0 0 1200 750" fill="none" xmlns="http://www.w3.org/2000/svg" role="img" aria-labelledby="title desc">
  <title id="title">Task planner preview</title>
  <desc id="desc">A task planning interface with priority cards, check marks, and progress bars.</desc>
  <defs>
    <linearGradient id="bg" x1="85" y1="75" x2="1115" y2="670" gradientUnits="userSpaceOnUse">
      <stop stop-color="#091019"/>
      <stop offset="1" stop-color="#1F3558"/>
    </linearGradient>
    <linearGradient id="card" x1="430" y1="165" x2="980" y2="590" gradientUnits="userSpaceOnUse">
      <stop stop-color="#F5F7FB"/>
      <stop offset="1" stop-color="#D7E3FF"/>
    </linearGradient>
  </defs>

  <rect width="1200" height="750" rx="40" fill="url(#bg)"/>
  <circle cx="980" cy="120" r="120" fill="#FFBF77" fill-opacity="0.09"/>
  <circle cx="220" cy="580" r="180" fill="#8EF0D8" fill-opacity="0.08"/>

  <rect x="100" y="85" width="1000" height="575" rx="34" fill="#FFFFFF" fill-opacity="0.06" stroke="#FFFFFF" stroke-opacity="0.12"/>
  <rect x="140" y="125" width="260" height="495" rx="28" fill="#101827" stroke="#FFFFFF" stroke-opacity="0.12"/>
  <rect x="178" y="164" width="170" height="22" rx="11" fill="#FFFFFF" fill-opacity="0.2"/>
  <rect x="176" y="220" width="190" height="92" rx="22" fill="#FFFFFF" fill-opacity="0.08"/>
  <rect x="176" y="330" width="190" height="92" rx="22" fill="#FFFFFF" fill-opacity="0.08"/>
  <rect x="176" y="440" width="190" height="92" rx="22" fill="#FFFFFF" fill-opacity="0.08"/>
  <circle cx="208" cy="266" r="15" fill="#8EF0D8"/>
  <circle cx="208" cy="376" r="15" fill="#FFBF77"/>
  <circle cx="208" cy="486" r="15" fill="#8EF0D8"/>

  <rect x="440" y="125" width="620" height="130" rx="28" fill="url(#card)"/>
  <rect x="480" y="165" width="220" height="20" rx="10" fill="#111827" fill-opacity="0.22"/>
  <rect x="480" y="198" width="310" height="24" rx="12" fill="#111827" fill-opacity="0.4"/>
  <rect x="935" y="160" width="88" height="50" rx="25" fill="#8EF0D8" fill-opacity="0.45"/>

  <rect x="440" y="280" width="190" height="210" rx="26" fill="#101827" stroke="#FFFFFF" stroke-opacity="0.08"/>
  <rect x="478" y="320" width="110" height="18" rx="9" fill="#FFFFFF" fill-opacity="0.18"/>
  <rect x="478" y="362" width="120" height="50" rx="18" fill="#FFFFFF" fill-opacity="0.08"/>
  <rect x="478" y="424" width="90" height="18" rx="9" fill="#8EF0D8" fill-opacity="0.4"/>

  <rect x="650" y="280" width="190" height="210" rx="26" fill="#101827" stroke="#FFFFFF" stroke-opacity="0.08"/>
  <rect x="688" y="320" width="110" height="18" rx="9" fill="#FFFFFF" fill-opacity="0.18"/>
  <path d="M688 374L707 393L746 349" stroke="#8EF0D8" stroke-width="12" stroke-linecap="round" stroke-linejoin="round"/>
  <rect x="688" y="425" width="100" height="18" rx="9" fill="#FFBF77" fill-opacity="0.34"/>

  <rect x="860" y="280" width="200" height="210" rx="26" fill="#101827" stroke="#FFFFFF" stroke-opacity="0.08"/>
  <rect x="900" y="320" width="120" height="18" rx="9" fill="#FFFFFF" fill-opacity="0.18"/>
  <rect x="900" y="360" width="120" height="18" rx="9" fill="#FFFFFF" fill-opacity="0.12"/>
  <rect x="900" y="400" width="86" height="18" rx="9" fill="#8EF0D8" fill-opacity="0.38"/>

  <rect x="440" y="520" width="620" height="88" rx="24" fill="#0E1421" stroke="#FFFFFF" stroke-opacity="0.08"/>
  <rect x="478" y="551" width="245" height="16" rx="8" fill="#FFFFFF" fill-opacity="0.16"/>
  <rect x="778" y="546" width="240" height="26" rx="13" fill="#FFBF77" fill-opacity="0.26"/>
</svg>
