<svg width="1200" height="750" viewBox="0 0 1200 750" fill="none" xmlns="http://www.w3.org/2000/svg" role="img" aria-labelledby="title desc">
  <title id="title">Landing page preview</title>
  <desc id="desc">A modern landing page mockup with cards, buttons, and a hero section.</desc>
  <defs>
    <linearGradient id="bg" x1="130" y1="60" x2="1090" y2="690" gradientUnits="userSpaceOnUse">
      <stop stop-color="#11172B"/>
      <stop offset="1" stop-color="#23376A"/>
    </linearGradient>
    <linearGradient id="accent" x1="420" y1="130" x2="860" y2="520" gradientUnits="userSpaceOnUse">
      <stop stop-color="#8EF0D8"/>
      <stop offset="1" stop-color="#FFBF77"/>
    </linearGradient>
  </defs>

  <rect width="1200" height="750" rx="40" fill="url(#bg)"/>
  <circle cx="1000" cy="120" r="130" fill="#FFFFFF" fill-opacity="0.07"/>
  <circle cx="170" cy="620" r="160" fill="#8EF0D8" fill-opacity="0.08"/>

  <rect x="70" y="60" width="1060" height="630" rx="30" fill="#FFFFFF" fill-opacity="0.06" stroke="#FFFFFF" stroke-opacity="0.12"/>
  <rect x="115" y="105" width="185" height="40" rx="20" fill="#FFFFFF" fill-opacity="0.08"/>
  <rect x="890" y="108" width="155" height="34" rx="17" fill="#FFFFFF" fill-opacity="0.12"/>
  <rect x="115" y="200" width="430" height="20" rx="10" fill="#FFFFFF" fill-opacity="0.18"/>
  <rect x="115" y="240" width="520" height="26" rx="13" fill="#FFFFFF" fill-opacity="0.26"/>
  <rect x="115" y="286" width="390" height="20" rx="10" fill="#FFFFFF" fill-opacity="0.18"/>
  <rect x="115" y="346" width="180" height="54" rx="27" fill="url(#accent)"/>

  <rect x="660" y="172" width="355" height="390" rx="34" fill="#101827" stroke="#FFFFFF" stroke-opacity="0.12"/>
  <rect x="695" y="208" width="110" height="18" rx="9" fill="#FFFFFF" fill-opacity="0.18"/>
  <rect x="695" y="248" width="120" height="78" rx="22" fill="#8EF0D8" fill-opacity="0.15"/>
  <rect x="830" y="248" width="150" height="78" rx="22" fill="#FFBF77" fill-opacity="0.15"/>
  <rect x="695" y="350" width="285" height="30" rx="15" fill="#FFFFFF" fill-opacity="0.12"/>
  <rect x="695" y="402" width="285" height="30" rx="15" fill="#FFFFFF" fill-opacity="0.12"/>
  <rect x="695" y="454" width="175" height="30" rx="15" fill="#FFFFFF" fill-opacity="0.12"/>
  <path d="M760 505C785 470 825 449 865 449C905 449 935 468 965 505" stroke="url(#accent)" stroke-width="12" stroke-linecap="round"/>

  <rect x="115" y="470" width="480" height="160" rx="28" fill="#0E1421" stroke="#FFFFFF" stroke-opacity="0.12"/>
  <rect x="145" y="502" width="82" height="82" rx="18" fill="#FFFFFF" fill-opacity="0.12"/>
  <rect x="251" y="502" width="82" height="82" rx="18" fill="#FFFFFF" fill-opacity="0.12"/>
  <rect x="357" y="502" width="82" height="82" rx="18" fill="#FFFFFF" fill-opacity="0.12"/>
  <rect x="463" y="502" width="82" height="82" rx="18" fill="#FFFFFF" fill-opacity="0.12"/>
</svg>
